<svg width="28" height="24" viewBox="0 0 28 24" fill="none" xmlns="http://www.w3.org/2000/svg">
<path d="M26.8334 1.5C25.7162 2.28805 24.4792 2.89079 23.1701 3.285C22.4674 2.47709 21.5336 1.90447 20.495 1.64458C19.4563 1.38468 18.3628 1.45006 17.3625 1.83186C16.3622 2.21366 15.5033 2.89347 14.9019 3.77933C14.3005 4.6652 13.9857 5.71439 14.0001 6.785V7.95166C11.9498 8.00483 9.91823 7.55011 8.08626 6.62802C6.25428 5.70592 4.67878 4.34507 3.50008 2.66666C3.50008 2.66666 -1.16659 13.1667 9.33341 17.8333C6.9307 19.4643 4.06843 20.2821 1.16675 20.1667C11.6667 26 24.5001 20.1667 24.5001 6.75C24.499 6.42503 24.4678 6.10086 24.4067 5.78166C25.5975 4.60741 26.4377 3.12483 26.8334 1.5V1.5Z" stroke="#3B71FE" stroke-width="2" stroke-linecap="round" stroke-linejoin="round"/>
</svg>
