<svg width="14" height="14" viewBox="0 0 14 14" fill="none" xmlns="http://www.w3.org/2000/svg">
<path d="M12.4167 1.60376H12.4283M10.6667 7.28543C10.8107 8.25638 10.6448 9.24801 10.1927 10.1193C9.74065 10.9905 9.02535 11.6971 8.14858 12.1384C7.2718 12.5797 6.2782 12.7333 5.3091 12.5773C4.33999 12.4214 3.44474 11.9639 2.75066 11.2698C2.05658 10.5757 1.59904 9.68045 1.44309 8.71134C1.28715 7.74224 1.44076 6.74864 1.88206 5.87186C2.32337 4.99509 3.0299 4.27979 3.90116 3.82771C4.77243 3.37563 5.76406 3.20978 6.73501 3.35376C7.72542 3.50063 8.64234 3.96213 9.35032 4.67012C10.0583 5.3781 10.5198 6.29502 10.6667 7.28543Z" stroke="#3B71FE" stroke-width="2" stroke-linecap="round" stroke-linejoin="round"/>
</svg>
