<svg width="28" height="24" viewBox="0 0 28 24" fill="none" xmlns="http://www.w3.org/2000/svg">
<path d="M26.8333 1.52052C25.7161 2.30858 24.4791 2.91131 23.17 3.30552C22.4674 2.49762 21.5335 1.92499 20.4949 1.6651C19.4562 1.40521 18.3627 1.47058 17.3624 1.85238C16.3621 2.23418 15.5032 2.91399 14.9018 3.79986C14.3004 4.68572 13.9856 5.73491 14 6.80552V7.97219C11.9497 8.02535 9.91814 7.57064 8.08617 6.64854C6.25419 5.72645 4.67869 4.3656 3.49999 2.68719C3.49999 2.68719 -1.16668 13.1872 9.33332 17.8539C6.93061 19.4848 4.06834 20.3026 1.16666 20.1872C11.6667 26.0205 24.5 20.1872 24.5 6.77052C24.4989 6.44555 24.4677 6.12138 24.4067 5.80219C25.5974 4.62793 26.4376 3.14535 26.8333 1.52052V1.52052Z" stroke="#3B71FE" stroke-width="2" stroke-linecap="round" stroke-linejoin="round"/>
</svg>
